<?xml version="1.0" encoding="utf-8"?>
<!-- Generator: Adobe Illustrator 24.2.3, SVG Export Plug-In . SVG Version: 6.00 Build 0)  -->
<svg version="1.1" id="Layer_1" xmlns="http://www.w3.org/2000/svg" xmlns:xlink="http://www.w3.org/1999/xlink" x="0px" y="0px"
	 viewBox="0 0 48 48" style="enable-background:new 0 0 48 48;" xml:space="preserve">
<style type="text/css">
	.st0{fill:#373737;}
	.st1{fill:#FEFEFE;}
	.st2{fill:#FCFCFC;}
	.st3{fill:#E50202;}
	.st4{fill:#FEFDFD;}
</style>
<path class="st0" d="M3.9,24c0-4.4,0-8.7,0-13.1C3.9,7.5,5.4,6,8.7,6c1.7,0,3.4-0.2,5.1,0.1c1,0.1,2.1,0.6,3,1.3
	c0.6,0.4,1,0.7,1.7,0.7c6.9,0,13.8,0,20.7,0c3.2,0,4.7,1.5,4.7,4.6c0,7.6,0,15.2,0,22.9c0,2.9-1.6,4.5-4.5,4.5c-7,0-14.1,0-21.1,0
	c-0.7,0-1.1,0.3-1.6,0.7c-0.8,0.6-1.9,1.2-3,1.3C12,42.1,10.1,42,8.2,42c-2.7,0-4.3-1.6-4.3-4.3C3.9,33.2,3.9,28.6,3.9,24z M18,37.9
	c0.4,0,0.8,0,1.1,0c6.7,0,13.5,0,20.2,0c2,0,2.6-0.7,2.6-2.6c0-7.6,0-15.2,0-22.9c0-1.8-0.7-2.5-2.6-2.5c-6.8,0-13.6,0-20.4,0
	c-0.4,0-0.7,0-1.1,0.1C18,19.4,18,28.6,18,37.9z M5.9,24c0,4.5,0,8.9,0,13.4c0,2,0.6,2.6,2.7,2.6c1.6,0,3.2,0,4.9,0
	c1.7,0,2.4-0.7,2.4-2.4c0-9.1,0-18.1,0-27.2c0-1.6-0.8-2.3-2.4-2.3c-1.7,0-3.3,0-5,0c-1.9,0-2.6,0.6-2.6,2.6
	C5.9,15.1,5.9,19.5,5.9,24z"/>
<path class="st1" d="M18,37.9c0-9.3,0-18.5,0-27.9c0.3,0,0.7-0.1,1.1-0.1c6.8,0,13.6,0,20.4,0c1.9,0,2.6,0.7,2.6,2.5
	c0,7.6,0,15.2,0,22.9c0,1.9-0.7,2.6-2.6,2.6c-6.7,0-13.5,0-20.2,0C18.8,38,18.4,38,18,37.9z M28.9,26c2,0,4,0,6,0c1.8,0,3-1.2,3.1-3
	c0-1.3,0-2.6,0-3.9c0-1.8-1.2-3.1-3.1-3.1c-4,0-7.9,0-11.9,0c-1.9,0-3.1,1.3-3.1,3.2c0,1.2,0,2.4,0,3.6c0,2,1.2,3.2,3.2,3.2
	C25.1,26,27,26,28.9,26z"/>
<path class="st2" d="M5.9,24c0-4.5,0-8.9,0-13.4c0-2,0.6-2.6,2.6-2.6c1.7,0,3.3,0,5,0c1.6,0,2.4,0.7,2.4,2.3c0,9.1,0,18.1,0,27.2
	c0,1.7-0.7,2.4-2.4,2.4c-1.6,0-3.2,0-4.9,0c-2.1,0-2.7-0.6-2.7-2.6C5.9,32.9,5.9,28.4,5.9,24z"/>
<path class="st3" d="M28.9,26c-1.9,0-3.8,0-5.7,0c-2,0-3.2-1.2-3.2-3.2c0-1.2,0-2.4,0-3.6c0-1.9,1.2-3.2,3.1-3.2c4,0,7.9,0,11.9,0
	c1.8,0,3,1.2,3.1,3.1c0,1.3,0,2.6,0,3.9c0,1.8-1.3,3-3.1,3C32.9,26,30.9,26,28.9,26z M29.1,18c-1.9,0-3.8,0-5.7,0
	c-0.9,0-1.3,0.4-1.3,1.3c0,1.2,0,2.3,0,3.5c0,0.9,0.5,1.3,1.3,1.2c3.8,0,7.6,0,11.4,0c1,0,1.3-0.5,1.3-1.4c0-1-0.1-2,0-3
	c0.1-1.2-0.4-1.7-1.6-1.6C32.6,18,30.8,18,29.1,18z"/>
<path class="st4" d="M29.1,18c1.8,0,3.6,0,5.4,0c1.2,0,1.7,0.5,1.6,1.6c-0.1,1,0,2,0,3c0,0.9-0.3,1.4-1.3,1.4c-3.8,0-7.6,0-11.4,0
	c-0.9,0-1.3-0.3-1.3-1.2c0-1.2,0-2.3,0-3.5c0-0.9,0.4-1.3,1.3-1.3C25.2,18,27.1,18,29.1,18z"/>
</svg>
